<svg xmlns="http://www.w3.org/2000/svg" viewBox="0 0 278.27 277.41"><defs><style>.cls-1{fill:#ed3c52;}.cls-2{fill:#fff;}</style></defs><g id="Capa_2" data-name="Capa 2"><g id="Capa_1-2" data-name="Capa 1"><path class="cls-1" d="M278.26,112.6C279.25,42,226.58,0,226.58,0s-24.84,34.8-23.85,81.89c1,35.83,10.93,67.56,36.77,97.25-3,5.12-7,11.26-11.92,15.36-8-9.22-17.89-16.38-28.82-22.52,11.92-24.57-7.95-39.93-23.86-39.93-13.91,0-24.84,11.26-26.83,24.57h-9.93c-2-13.31-12.92-24.57-25.84-24.57-14.91,0-30.81,14.33-24.85,35.83A107.29,107.29,0,0,0,50.68,194.5L38.76,179.14c23.85-26.61,36.77-60.4,36.77-97.25C75.53,35.83,51.68,0,51.68,0S0,39.92,0,112.6c0,23.55,7,67.56,37.76,98.27-12.92,18.43-19.87,40.95-20.87,65.52l19.88,1c1-19.45,6-36.85,15.9-52.2,7,5.11,13.91,10.23,20.87,14.33a80.54,80.54,0,0,0-11.93,36.85l19.88,1a50.43,50.43,0,0,1,9.94-29.68c18.88,7.16,51.67,16.37,94.41,0a50.49,50.49,0,0,1,9.93,29.68l19.88-1c-1-13.31-5-26.62-11.93-36.85,7-4.1,13.92-8.19,20.87-14.33,9.94,15.35,14.91,32.75,15.9,52.2l19.88-1c-1-23.55-8.94-46.07-20.87-65.52A145.82,145.82,0,0,0,278.26,112.6ZM46.71,34.8c10.93,20.48,18.88,81.9-17.89,124.89C8,104.41,29.81,56.3,46.71,34.8ZM175.9,151.5a6.9,6.9,0,0,1,7,7.17c0,3.07-4,6.14-6,6.14a6.9,6.9,0,0,1-6.95-7.17C168.94,154.57,171.92,151.5,175.9,151.5Zm-63.6,0a6.9,6.9,0,0,1,7,7.17c0,3.07-2,7.16-7,7.16s-7-4.09-7-7.16C106.33,154.57,109.32,151.5,112.3,151.5ZM231.55,34.8c18.88,20.48,38.76,74.73,17.89,124.89C215.65,120.79,221.61,54.25,231.55,34.8Z"/><path class="cls-2" d="M71.06,205.24c19.84-20.7,85.67-44.85,142.54,2.89C157.85,250.8,99.12,226.83,71.06,205.24Z"/></g></g></svg>